<?xml version="1.0" encoding="UTF-8" standalone="no"?>
<!DOCTYPE svg PUBLIC "-//W3C//DTD SVG 1.1//EN" "http://www.w3.org/Graphics/SVG/1.1/DTD/svg11.dtd">
<svg width="100%" height="100%" viewBox="0 0 125 144" version="1.1" xmlns="http://www.w3.org/2000/svg" xmlns:xlink="http://www.w3.org/1999/xlink" xml:space="preserve" xmlns:serif="http://www.serif.com/" style="fill-rule:evenodd;clip-rule:evenodd;stroke-linecap:round;stroke-linejoin:round;stroke-miterlimit:1.5;">
    <path d="M124.957,36.567L62.797,0.233L0,35.692L0,107.666L62.5,143.807L124.957,108.269L124.957,36.567Z" style="fill:rgb(100,136,107);"/>
    <g id="hacksmiths-sticker-white">
        <g>
            <path id="Fill-1" d="M62.797,0.233L0,35.692L0,107.666L62.16,144L124.957,108.269L124.957,36.567L62.797,0.233ZM73.339,46.684C73.91,46.932 74.426,47.319 74.815,47.858C75.974,49.466 75.609,51.715 74.003,52.874C72.396,54.033 70.147,53.669 68.987,52.061C67.829,50.455 68.193,48.206 69.8,47.047C70.011,46.895 70.234,46.772 70.463,46.672L70.614,34.005L43.474,18.398L37.609,21.735L63.95,36.882L63.941,36.897L63.95,36.897L63.95,45.541L47.028,45.541C46.437,46.718 45.232,47.536 43.828,47.536C41.846,47.536 40.235,45.924 40.235,43.943C40.235,41.962 41.846,40.351 43.828,40.351C45.372,40.351 46.68,41.336 47.186,42.706L61.115,42.706L61.115,38.522L34.751,23.361L32.329,24.739L35.443,26.529L35.434,54.166L41.92,54.183C42.471,52.905 43.741,52.007 45.218,52.007C47.199,52.007 48.81,53.619 48.81,55.6C48.81,57.581 47.199,59.192 45.218,59.192C43.741,59.192 42.471,58.295 41.92,57.017L32.6,57L32.6,28.169L29.471,26.365L27.006,27.767L27.006,57.283C28.284,57.834 29.181,59.104 29.181,60.581C29.181,62.562 27.57,64.173 25.589,64.173C23.608,64.173 21.996,62.562 21.996,60.581C21.996,59.104 22.894,57.834 24.172,57.282L24.172,29.38L18.561,32.573L18.561,57.407C19.838,57.958 20.736,59.228 20.736,60.706C20.736,62.686 19.125,64.298 17.143,64.298C15.163,64.298 13.551,62.686 13.551,60.706C13.551,59.228 14.449,57.958 15.726,57.407L15.726,34.186L6.535,39.415L6.403,69.226L23.524,69.226C23.82,68.537 24.321,67.93 25.02,67.529C26.737,66.542 28.937,67.137 29.924,68.853C30.91,70.571 30.317,72.771 28.599,73.758C28.036,74.081 27.422,74.235 26.816,74.235C25.571,74.235 24.359,73.588 23.695,72.433C23.625,72.313 23.582,72.185 23.528,72.061L6.39,72.061L6.361,78.597L23.708,78.597C24.012,77.888 24.523,77.292 25.204,76.9C26.036,76.423 27.005,76.297 27.931,76.546C28.858,76.797 29.631,77.393 30.109,78.225C30.587,79.057 30.712,80.025 30.462,80.951C30.212,81.877 29.616,82.651 28.784,83.129C28.232,83.446 27.62,83.608 27,83.608C26.686,83.608 26.369,83.567 26.058,83.483C25.131,83.233 24.358,82.637 23.88,81.805C23.811,81.685 23.766,81.557 23.712,81.432L6.349,81.432L6.32,87.906L38.587,87.906C38.883,87.217 39.384,86.61 40.082,86.208C40.915,85.731 41.884,85.606 42.809,85.855C43.736,86.105 44.509,86.701 44.987,87.533C45.974,89.25 45.38,91.45 43.664,92.438C43.1,92.761 42.486,92.914 41.879,92.914C40.633,92.914 39.421,92.268 38.757,91.114C38.688,90.993 38.644,90.865 38.59,90.74L6.307,90.74L6.279,97.22L54.824,97.22C55.128,96.511 55.639,95.915 56.319,95.523C57.152,95.045 58.121,94.92 59.047,95.169C59.974,95.419 60.747,96.015 61.225,96.847C61.703,97.678 61.828,98.647 61.578,99.574C61.328,100.499 60.732,101.274 59.901,101.752C59.348,102.069 58.736,102.231 58.116,102.231C57.802,102.231 57.485,102.19 57.174,102.105C56.247,101.855 55.474,101.259 54.996,100.427C54.927,100.307 54.882,100.18 54.828,100.055L6.266,100.055L6.248,104.112L20.248,112.295L20.248,107.275L55.121,107.275C55.348,106.746 55.69,106.259 56.171,105.877C57.724,104.646 59.988,104.91 61.217,106.461C62.448,108.013 62.186,110.277 60.634,111.507C59.975,112.03 59.188,112.283 58.406,112.283C57.346,112.283 56.296,111.817 55.588,110.923C55.387,110.67 55.24,110.393 55.118,110.11L23.082,110.11L23.082,113.952L28.992,117.406L55.305,117.406C55.609,116.697 56.12,116.1 56.802,115.708C58.519,114.721 60.719,115.316 61.706,117.033C62.693,118.75 62.098,120.951 60.382,121.938C59.83,122.255 59.217,122.417 58.597,122.417C58.283,122.417 57.966,122.375 57.655,122.291C56.728,122.04 55.955,121.445 55.477,120.613C55.408,120.493 55.363,120.365 55.309,120.241L33.841,120.241L45.008,126.768L66.621,126.768L66.621,99.004C66.067,98.779 65.558,98.428 65.162,97.927C63.931,96.375 64.194,94.111 65.746,92.881C67.295,91.65 69.561,91.912 70.792,93.465C72.022,95.016 71.761,97.28 70.208,98.511C69.936,98.726 69.639,98.885 69.333,99.01L69.333,129.603L49.858,129.603L62.191,136.812L76.684,128.565L76.684,101.289C75.407,100.738 74.509,99.468 74.509,97.991C74.509,96.009 76.121,94.398 78.101,94.398C80.083,94.398 81.694,96.009 81.694,97.991C81.694,99.468 80.796,100.738 79.519,101.289L79.519,126.952L107.165,111.222L86.771,111.2L86.865,104.343L86.804,104.343C85.527,103.792 84.629,102.522 84.629,101.045C84.629,99.064 86.241,97.452 88.221,97.452C90.202,97.452 91.814,99.064 91.814,101.045C91.814,102.522 90.916,103.792 89.638,104.343L89.671,108.347L112.147,108.388L118.423,104.817L118.43,103.313L104.006,103.31L104.006,103.313L101.171,103.313L101.173,96.877C100.463,96.573 99.867,96.062 99.475,95.381C98.996,94.549 98.872,93.58 99.121,92.654C99.371,91.727 99.967,90.953 100.799,90.476C102.517,89.488 104.717,90.084 105.705,91.799C106.182,92.632 106.308,93.6 106.057,94.527C105.807,95.453 105.211,96.227 104.379,96.704C104.258,96.774 104.134,96.833 104.007,96.888L104.007,100.475L118.442,100.478L118.506,85.993L98.723,86.237C98.172,87.514 96.902,88.412 95.424,88.412C93.444,88.412 91.832,86.801 91.832,84.82C91.832,82.839 93.444,81.227 95.424,81.227C96.902,81.227 98.172,82.125 98.723,83.402L118.519,83.158L118.544,77.422L98.456,77.422C97.905,78.699 96.635,79.597 95.158,79.597C93.177,79.597 91.565,77.985 91.565,76.004C91.565,74.023 93.177,72.412 95.158,72.412C96.636,72.412 97.905,73.31 98.456,74.587L118.557,74.587L118.584,68.335L98.54,68.335C97.989,69.612 96.719,70.51 95.241,70.51C93.261,70.51 91.649,68.898 91.649,66.917C91.649,64.936 93.261,63.325 95.241,63.325C96.719,63.325 97.989,64.223 98.54,65.5L118.597,65.5L118.818,51.453L87.229,51.453C86.678,52.731 85.408,53.628 83.931,53.628C81.95,53.628 80.338,52.017 80.338,50.036C80.338,48.055 81.95,46.443 83.931,46.443C85.408,46.443 86.679,47.341 87.23,48.619L118.831,48.619L118.709,40.121L62.766,7.421L55.13,11.766L97.995,37.36C98.503,37.083 99.076,36.912 99.694,36.912C101.675,36.912 103.287,38.524 103.287,40.505C103.287,42.486 101.675,44.097 99.694,44.097C97.714,44.097 96.102,42.486 96.102,40.505C96.102,40.195 96.154,39.9 96.228,39.613L52.272,13.392L46.332,16.772L73.461,32.373L73.312,46.672L73.339,46.684ZM57.054,118.409C57.165,117.997 57.429,117.655 57.798,117.443C58.558,117.004 59.535,117.268 59.972,118.03C60.41,118.79 60.146,119.766 59.384,120.203C59.015,120.415 58.586,120.469 58.176,120.361C57.766,120.249 57.423,119.986 57.211,119.616C57,119.247 56.943,118.819 57.054,118.409ZM57.414,107.444C57.706,107.213 58.054,107.101 58.4,107.101C58.871,107.101 59.337,107.307 59.651,107.703C60.196,108.391 60.08,109.395 59.391,109.94C58.703,110.485 57.699,110.368 57.155,109.681C56.61,108.993 56.726,107.99 57.414,107.444ZM89.987,100.898C89.987,101.776 89.273,102.49 88.395,102.49C87.517,102.49 86.803,101.776 86.803,100.898C86.803,100.02 87.517,99.305 88.395,99.305C89.273,99.305 89.987,100.02 89.987,100.898ZM68.966,96.944C68.633,97.208 68.218,97.325 67.793,97.278C67.371,97.229 66.993,97.018 66.729,96.685C66.183,95.997 66.299,94.993 66.988,94.448C67.28,94.217 67.628,94.104 67.975,94.104C68.445,94.104 68.911,94.311 69.225,94.707C69.489,95.041 69.608,95.457 69.559,95.879C69.51,96.302 69.299,96.679 68.966,96.944ZM56.573,98.222C56.684,97.812 56.948,97.469 57.316,97.257L57.317,97.257C57.561,97.116 57.833,97.044 58.108,97.044C58.247,97.044 58.388,97.063 58.525,97.1C58.936,97.21 59.278,97.475 59.49,97.844C59.929,98.605 59.665,99.58 58.904,100.018C58.535,100.23 58.106,100.287 57.695,100.174C57.285,100.064 56.942,99.799 56.73,99.43C56.519,99.062 56.462,98.632 56.573,98.222ZM78.101,99.583C77.223,99.583 76.509,98.869 76.509,97.991C76.509,97.113 77.223,96.398 78.101,96.398C78.979,96.398 79.694,97.113 79.694,97.991C79.694,98.869 78.979,99.583 78.101,99.583ZM103.382,94.97C103.015,95.184 102.586,95.24 102.174,95.127C101.764,95.017 101.421,94.752 101.209,94.384L101.209,94.383C100.998,94.015 100.941,93.585 101.052,93.175C101.163,92.765 101.427,92.422 101.795,92.21C102.045,92.067 102.318,91.998 102.587,91.998C103.139,91.998 103.676,92.286 103.97,92.796C104.182,93.165 104.238,93.594 104.126,94.005C104.016,94.415 103.751,94.758 103.382,94.97ZM41.079,87.943C41.324,87.802 41.595,87.73 41.87,87.73C42.009,87.73 42.15,87.748 42.288,87.786C42.698,87.897 43.04,88.161 43.252,88.53C43.69,89.291 43.427,90.266 42.666,90.703C41.908,91.142 40.929,90.878 40.492,90.117C40.054,89.355 40.318,88.38 41.079,87.943ZM97.017,84.82C97.017,85.697 96.302,86.412 95.424,86.412C94.546,86.412 93.832,85.697 93.832,84.82C93.832,83.942 94.546,83.227 95.424,83.227C96.302,83.227 97.017,83.942 97.017,84.82ZM25.457,79.6C25.568,79.189 25.832,78.846 26.2,78.634C26.445,78.493 26.717,78.421 26.991,78.421C27.131,78.421 27.271,78.44 27.409,78.477C27.82,78.588 28.162,78.852 28.374,79.222C28.586,79.59 28.643,80.019 28.531,80.43C28.421,80.84 28.156,81.183 27.788,81.395C27.418,81.607 26.986,81.662 26.579,81.552C26.169,81.441 25.826,81.177 25.614,80.808C25.403,80.439 25.346,80.01 25.457,79.6ZM96.75,76.004C96.75,76.882 96.036,77.597 95.158,77.597C94.28,77.597 93.565,76.882 93.565,76.004C93.565,75.126 94.28,74.412 95.158,74.412C96.036,74.412 96.75,75.126 96.75,76.004ZM26.016,69.263C26.266,69.12 26.537,69.052 26.807,69.052C27.359,69.052 27.896,69.338 28.19,69.85C28.627,70.611 28.363,71.586 27.603,72.024C26.842,72.462 25.866,72.198 25.429,71.437C24.991,70.676 25.255,69.7 26.016,69.263ZM96.834,66.917C96.834,67.795 96.119,68.51 95.241,68.51C94.363,68.51 93.649,67.795 93.649,66.917C93.649,66.039 94.363,65.325 95.241,65.325C96.119,65.325 96.834,66.039 96.834,66.917ZM71.902,48.482C72.78,48.482 73.495,49.197 73.495,50.075C73.495,50.589 73.249,51.047 72.869,51.338C72.601,51.544 72.265,51.667 71.902,51.667C71.025,51.667 70.311,50.953 70.311,50.075C70.311,49.197 71.025,48.482 71.902,48.482ZM17.143,59.113C17.692,59.113 18.177,59.393 18.463,59.816C18.635,60.071 18.736,60.377 18.736,60.706C18.736,61.583 18.021,62.298 17.143,62.298C16.265,62.298 15.551,61.583 15.551,60.706C15.551,59.828 16.265,59.113 17.143,59.113ZM45.365,53.86C46.243,53.86 46.958,54.574 46.958,55.452C46.958,56.33 46.243,57.044 45.365,57.044C44.487,57.044 43.773,56.33 43.773,55.452C43.773,54.574 44.487,53.86 45.365,53.86ZM25.589,58.989C26.467,58.989 27.181,59.703 27.181,60.581C27.181,61.459 26.467,62.173 25.589,62.173C24.711,62.173 23.997,61.459 23.997,60.581C23.997,59.703 24.711,58.989 25.589,58.989ZM45.419,43.943C45.419,44.821 44.706,45.536 43.828,45.536C42.95,45.536 42.235,44.821 42.235,43.943C42.235,43.065 42.95,42.351 43.828,42.351C44.706,42.351 45.419,43.065 45.419,43.943ZM85.523,50.036C85.523,50.914 84.809,51.628 83.931,51.628C83.053,51.628 82.338,50.914 82.338,50.036C82.338,49.158 83.053,48.443 83.931,48.443C84.809,48.443 85.523,49.158 85.523,50.036ZM99.694,38.912C100.572,38.912 101.287,39.627 101.287,40.505C101.287,41.383 100.572,42.097 99.694,42.097C98.816,42.097 98.102,41.383 98.102,40.505C98.102,39.627 98.816,38.912 99.694,38.912Z" style="fill:rgb(244,150,41);"/>
            <g transform="matrix(1.32175,0,0,1.343,-32.0299,-28.5783)">
                <path d="M71.519,26.311L114.128,50.601L114.128,99.181L71.519,123.471L28.91,99.181L28.91,50.601L71.519,26.311Z" style="fill:rgb(19,14,18);"/>
            </g>
        </g>
        <g transform="matrix(-1.9112,0,0,1.9112,177.274,-76.6943)">
            <g transform="matrix(1,0,0,1.11129,0,-6.70266)">
                <rect x="56.742" y="60.228" width="5.758" height="36.209" style="fill:rgb(244,150,41);"/>
            </g>
            <g transform="matrix(0.995191,0.0979501,-0.0979501,0.995191,20.1341,0.933156)">
                <g transform="matrix(-0.715486,0,0,0.715486,92.417,21.0391)">
                    <path d="M84.091,85.25L52.386,85.25L52.386,74.946L84.091,74.946L84.091,74.946L91.356,80.11L84.091,85.249L84.091,85.25Z" style="fill:rgb(244,150,41);stroke:rgb(14,19,15);stroke-width:0.73px;"/>
                </g>
                <g transform="matrix(-1,-6.93889e-18,-6.93889e-18,1,124.846,15.5387)">
                    <text x="72.132px" y="64.581px" style="font-family:'OpenSans-ExtraBoldItalic', 'Open Sans', sans-serif;font-weight:800;font-style:italic;font-size:5px;fill:rgb(14,19,15);">FUTURE</text>
                </g>
            </g>
            <g transform="matrix(1,0,0,1,10.5774,2.08932)">
                <g transform="matrix(-0.715486,0,0,0.715486,93.5792,23.5216)">
                    <path d="M77.403,61.601L84.514,66.762L77.403,71.922L77.403,71.912L54.201,71.912L54.201,61.607L77.403,61.607L77.403,61.601Z" style="fill:rgb(244,150,41);stroke:rgb(14,19,15);stroke-width:0.73px;"/>
                </g>
                <g transform="matrix(-1,0,0,1,125.277,8.49152)">
                    <text x="72.132px" y="64.581px" style="font-family:'OpenSans-ExtraBoldItalic', 'Open Sans', sans-serif;font-weight:800;font-style:italic;font-size:5px;fill:rgb(14,19,15);">Y<tspan x="75.051px 78.736px " y="64.581px 64.581px ">OU</tspan>R</text>
                </g>
            </g>
            <g transform="matrix(1,-7.21645e-16,7.21645e-16,1,-11.0993,0.160837)">
                <g transform="matrix(-0.715486,0,0,0.715486,114.017,25.6291)">
                    <path d="M42.684,58.706L35.418,53.531L42.684,48.357L69.288,48.357L69.288,58.662L42.684,58.662L42.684,58.706Z" style="fill:rgb(244,150,41);stroke:rgb(14,19,15);stroke-width:0.73px;"/>
                </g>
                <g transform="matrix(-1,0,0,1,152.596,1.11873)">
                    <text x="72.132px" y="64.581px" style="font-family:'OpenSans-ExtraBoldItalic', 'Open Sans', sans-serif;font-weight:800;font-style:italic;font-size:5px;fill:rgb(19,14,18);">HA<tspan x="78.98px 82.129px " y="64.581px 64.581px ">CK</tspan></text>
                </g>
            </g>
        </g>
    </g>
</svg>
